Patient4_TMGait_0pt4_01_right_03_GRF.mot
version=1
nRows=45
nColumns=19
inDegrees=no
endheader
time	F1x	F1y	F1z	M1x	M1y	M1z	F2x	F2y	F2z	M2x	M2y	M2z	EC1x	EC1y	EC1z	EC2x	EC2y	EC2z
3.47	-7.1667	767.073	67.8391	-274.7892	-75.3134	842.087	-12.4456	-24.2631	-6.2678	-3.9185	4.7658	-42.3213	-0.0592	0.0182	-0.0073	-0.0462	0.0165	0.9585
3.4828	-3.8085	748.2637	66.9882	-268.4116	-72.1732	821.242	-8.4691	-14.9263	-4.2444	-2.1462	3.3032	-26.7264	-0.0592	0.0182	-0.0073	-0.0462	0.0165	0.9585
3.4956	-0.73126	729.3584	65.9269	-261.8432	-68.969	799.8766	-5.0777	-7.0684	-2.5165	-0.65578	2.0513	-13.6266	-0.0592	0.0182	-0.0073	-0.0462	0.0165	0.9585
3.5084	1.8564	712.4869	64.7607	-255.8484	-65.9235	780.2624	-2.4839	-1.1108	-1.1846	0.47772	1.0809	-3.7151	-0.0592	0.0182	-0.0073	-0.0462	0.0165	0.9585
3.5211	3.9106	699.5591	63.6001	-251.1554	-63.1736	764.4575	-0.69205	3.0035	-0.26251	1.2662	0.40472	3.1157	-0.0592	0.0182	-0.0073	-0.0462	0.0165	0.9585
3.5339	5.4881	692.0176	62.4942	-248.3375	-60.7452	754.0202	0.4184	5.5383	0.31134	1.7572	-0.023054	7.3202	-0.0592	0.0182	-0.0073	-0.0462	0.0165	0.9585
3.5467	6.7062	690.6038	61.486	-247.7085	-58.6266	749.7581	0.96534	6.8618	0.60518	2.0154	-0.23444	9.5284	-0.0592	0.0182	-0.0073	-0.0462	0.0165	0.9585
3.5595	7.7299	695.2821	60.5805	-249.2892	-56.7552	751.6497	1.138	7.3108	0.69614	2.0987	-0.288	10.2889	-0.0592	0.0182	-0.0073	-0.0462	0.0165	0.9585
3.5723	8.7208	705.3201	59.7911	-252.8286	-55.0727	758.9423	1.0424	7.1629	0.64363	2.0496	-0.21298	10.0876	-0.0592	0.0182	-0.0073	-0.0462	0.0165	0.9585
3.5851	9.8382	719.4336	59.1064	-257.8557	-53.5078	770.3021	0.80663	6.5732	0.50415	1.8833	-0.05295	9.2105	-0.0592	0.0182	-0.0073	-0.0462	0.0165	0.9585
3.5979	11.1912	735.9321	58.5306	-263.7323	-52.0194	784.0008	0.50506	5.6457	0.31304	1.6025	0.16854	7.8663	-0.0592	0.0182	-0.0073	-0.0462	0.0165	0.9585
3.6106	12.8751	752.9279	58.0652	-269.7378	-50.5765	798.1144	0.21105	4.3798	0.1034	1.1894	0.41651	6.1031	-0.0592	0.0182	-0.0073	-0.0462	0.0165	0.9585
3.6234	14.9082	768.549	57.7276	-275.1525	-49.1853	810.7764	-0.020352	2.7463	-0.10076	0.62445	0.65181	3.9286	-0.0592	0.0182	-0.0073	-0.0462	0.0165	0.9585
3.6362	17.3036	781.1651	57.5399	-279.3485	-47.863	820.3745	-0.1204	0.75272	-0.26431	-0.095674	0.80961	1.3724	-0.0592	0.0182	-0.0073	-0.0462	0.0165	0.9585
3.649	19.9997	789.6139	57.5343	-281.8763	-46.6525	825.7979	-0.0054836	-1.5391	-0.34275	-0.94687	0.80303	-1.4936	-0.0592	0.0182	-0.0073	-0.0462	0.0165	0.9585
3.6618	22.9034	793.2928	57.7464	-282.5097	-45.6157	826.5054	0.39166	-3.8936	-0.27466	-1.8379	0.52551	-4.3837	-0.0592	0.0182	-0.0073	-0.0462	0.0165	0.9585
3.6746	25.8309	792.1748	58.1946	-281.2518	-44.8311	822.5594	1.1973	-5.8569	0.010699	-2.5881	-0.15989	-6.7697	-0.0592	0.0182	-0.0073	-0.0462	0.0165	0.9585
3.6874	28.5777	786.7539	58.8658	-278.312	-44.3636	814.5405	2.4738	-6.6567	0.60627	-2.8922	-1.3947	-7.7117	-0.0592	0.0182	-0.0073	-0.0462	0.0165	0.9585
3.7001	30.9476	777.8911	59.6887	-274.0474	-44.2204	803.3752	4.2846	-5.1591	1.6024	-2.2986	-3.3098	-5.8386	-0.0592	0.0182	-0.0073	-0.0462	0.0165	0.9585
3.7129	32.7977	766.6268	60.5708	-268.8803	-44.3656	790.1429	6.5973	0.20534	3.0627	-0.18823	-5.9671	0.76633	-0.0592	0.0182	-0.0073	-0.0462	0.0165	0.9585
3.7257	34.1208	753.9168	61.4186	-263.1966	-44.7127	775.7639	9.2317	11.3198	4.9975	4.1848	-9.2992	14.3918	-0.0592	0.0182	-0.0073	-0.0462	0.0165	0.9585
3.7385	34.9755	740.401	62.1747	-257.2553	-45.1819	760.826	11.7659	30.2187	7.3024	11.6195	-13.0022	37.4994	-0.0592	0.0182	-0.0073	-0.0462	0.0165	0.9585
3.7513	35.499	726.1932	62.7284	-251.1281	-45.6185	745.3435	13.4477	58.6683	9.6952	22.8022	-16.4229	72.2103	-0.0592	0.0182	-0.0073	-0.0462	0.0165	0.9585
3.7641	35.8254	710.8154	62.9073	-244.6794	-45.8033	728.7635	13.1209	97.4271	11.6207	38.0246	-18.4288	119.4102	-0.0592	0.0182	-0.0073	-0.0462	0.0165	0.9585
3.7769	36.1471	693.1892	62.429	-237.5731	-45.3925	709.9218	9.7004	145.7435	12.2575	56.9546	-17.6012	178.1895	-0.0592	0.0182	-0.0073	-0.0462	0.0165	0.9585
3.7896	36.5962	671.8983	61.038	-229.3453	-44.0836	687.3458	2.9075	200.626	10.7573	78.3568	-12.8079	244.9401	-0.0592	0.0182	-0.0073	-0.0462	0.0165	0.9585
3.8024	37.2162	645.5486	58.5854	-219.5301	-41.7117	659.6074	-6.3237	256.4434	6.7062	99.9829	-4.0239	312.8792	-0.0592	0.0182	-0.0073	-0.0462	0.0165	0.9585
3.8152	37.8924	613.2548	55.1325	-207.8317	-38.3675	625.8495	-16.0085	306.3558	0.69722	119.1897	7.2266	373.6511	-0.0592	0.0182	-0.0073	-0.0462	0.0165	0.9585
3.828	38.4141	575.0778	50.8791	-194.2752	-34.3105	586.1988	-24.6545	345.7317	-6.3154	134.2292	19.1429	421.6289	-0.0592	0.0182	-0.0073	-0.0462	0.0165	0.9585
3.8408	38.5553	532.0756	46.1484	-179.2202	-29.9239	541.7773	-31.5376	374.0212	-12.8259	144.9769	29.7059	456.1344	-0.0592	0.0182	-0.0073	-0.0462	0.0165	0.9585
3.8536	38.1484	485.9699	41.2498	-163.2491	-25.5606	494.3836	-36.5967	393.48	-17.9397	152.3936	37.8265	479.9294	-0.0592	0.0182	-0.0073	-0.0462	0.0165	0.9585
3.8664	37.1264	438.6693	36.4472	-147.0007	-21.4918	445.9696	-40.0823	407.7993	-21.1596	157.9696	43.0634	497.4296	-0.0592	0.0182	-0.0073	-0.0462	0.0165	0.9585
3.8791	35.4548	391.8478	31.8777	-131.0247	-17.8574	398.2315	-42.3704	421.0398	-22.8215	163.2795	45.9394	513.457	-0.0592	0.0182	-0.0073	-0.0462	0.0165	0.9585
3.8919	33.1195	346.6257	27.6193	-115.6767	-14.7327	352.2655	-43.8195	436.8786	-23.4054	169.7189	47.1889	532.2935	-0.0592	0.0182	-0.0073	-0.0462	0.0165	0.9585
3.9047	30.0871	303.5501	23.7039	-101.1147	-12.1584	308.5976	-44.7926	458.0487	-23.6851	178.2797	47.852	557.1002	-0.0592	0.0182	-0.0073	-0.0462	0.0165	0.9585
3.9175	26.3353	262.7577	20.1818	-87.3612	-10.1858	267.3233	-45.5593	485.9384	-24.2605	189.4291	48.7602	589.4119	-0.0592	0.0182	-0.0073	-0.0462	0.0165	0.9585
3.9303	21.8927	224.271	17.1047	-74.4036	-8.8528	228.4242	-46.3629	520.5147	-25.7092	203.0835	50.6664	629.125	-0.0592	0.0182	-0.0073	-0.0462	0.0165	0.9585
3.9431	16.9067	188.1935	14.5161	-62.2649	-8.1486	191.9583	-47.383	560.5604	-28.2513	218.7213	53.8988	674.7547	-0.0592	0.0182	-0.0073	-0.0462	0.0165	0.9585
3.9559	11.6699	154.6949	12.4032	-51.0027	-7.9659	158.0508	-48.7039	604.0538	-31.9578	235.5211	58.5436	723.9119	-0.0592	0.0182	-0.0073	-0.0462	0.0165	0.9585
3.9686	6.5279	123.995	10.6713	-40.7012	-8.0979	126.9033	-50.2678	648.5727	-36.5602	252.5287	64.2645	773.7489	-0.0592	0.0182	-0.0073	-0.0462	0.0165	0.9585
3.9814	1.8691	96.3169	9.1925	-31.4472	-8.2907	98.7373	-51.894	691.6237	-41.6956	268.7767	70.557	821.3627	-0.0592	0.0182	-0.0073	-0.0462	0.0165	0.9585
3.9942	-1.9518	71.8788	7.8135	-23.3212	-8.2734	73.8027	-53.3236	730.9233	-46.8559	283.3865	76.7409	864.1281	-0.0592	0.0182	-0.0073	-0.0462	0.0165	0.9585
4.007	-4.6333	50.8901	6.425	-16.3912	-7.8415	52.3443	-54.3049	764.4687	-51.6499	295.5895	82.2649	899.7838	-0.0592	0.0182	-0.0073	-0.0462	0.0165	0.9585
4.0198	-5.9959	33.5431	4.9802	-10.7093	-6.8985	34.5948	-54.6712	790.6558	-55.7846	304.7669	86.7295	926.5753	-0.0592	0.0182	-0.0073	-0.0462	0.0165	0.9585
4.0326	-6.0328	19.9	3.5339	-6.2818	-5.5074	20.6287	-54.2906	808.3957	-59.1808	310.4973	89.9876	943.3609	-0.0592	0.0182	-0.0073	-0.0462	0.0165	0.9585
